<?xml version="1.0" encoding="UTF-8"?>
<svg xmlns="http://www.w3.org/2000/svg" version="1.1" viewBox="0 0 70 70">
  <!-- Generator: Adobe Illustrator 29.3.1, SVG Export Plug-In . SVG Version: 2.1.0 Build 151)  -->
  <defs>
    <style>
      .st0 {
        fill: #fbb615;
      }

      .st1 {
        isolation: isolate;
      }

      .st2 {
        fill: #e69124;
        mix-blend-mode: multiply;
        opacity: .4;
      }
    </style>
  </defs>
  <g class="st1">
    <g id="Layer_1">
      <g>
        <path class="st0" d="M65.2,24.1l-16.1-2.1c-1.4-.2-2.7-1.1-3.3-2.4l-7-14.6c-1.5-3.2-6.2-3.2-7.7,0l-7,14.6c-.6,1.3-1.9,2.2-3.3,2.4l-16.1,2.1c-3.6.5-5,4.9-2.4,7.3l11.8,11.2c1,1,1.5,2.4,1.3,3.9l-2.9,16c-.6,3.5,3.1,6.2,6.2,4.5l14.3-7.7c1.3-.7,2.8-.7,4.1,0l14.3,7.7c3.2,1.7,6.9-1,6.2-4.5l-2.9-16c-.3-1.4.2-2.9,1.3-3.9l11.8-11.2c2.6-2.5,1.2-6.9-2.4-7.3Z"/>
        <path class="st2" d="M55.9,42.6c-1,1-1.5,2.5-1.3,3.9l2.9,16c.7,3.5-3.1,6.2-6.2,4.5l-14.3-7.7c-1.3-.7-2.8-.7-4.1,0l-14.3,7.7c-3.2,1.7-6.9-1-6.2-4.5l2.3-12.5h0c9.5,3.3,19.9,1.2,26.9-5.5,9.2-8.9,7.7-21.2,7.5-22.5,5.4.7,10.7,1.4,16.1,2.1,3.6.5,5,4.9,2.4,7.3l-11.8,11.2Z"/>
      </g>
    </g>
  </g>
</svg>